<?xml version="1.0" encoding="UTF-8"?>
<svg width="20px" height="20px" viewBox="0 0 20 20" version="1.1" xmlns="http://www.w3.org/2000/svg" xmlns:xlink="http://www.w3.org/1999/xlink">
    <!-- Generator: Sketch 41.2 (35397) - http://www.bohemiancoding.com/sketch -->
    <title>icon-en-active</title>
    <desc>Created with Sketch.</desc>
    <defs>
        <polygon id="path-1" points="10.0002 20 20 20 20 0 10.0002 0 0.0004 0 0.0004 20 10.0002 20"></polygon>
    </defs>
    <g id="Symbols" stroke="none" stroke-width="1" fill="none" fill-rule="evenodd">
        <g id="icon-en-active">
            <g>
                <mask id="mask-2" fill="white">
                    <use xlink:href="#path-1"></use>
                </mask>
                <g id="Clip-2"></g>
                <path d="M1.0254,10.5 L4.0154,10.5 C4.0624,12.09 4.3284,13.583 4.7694,14.893 C4.1444,15.124 3.5664,15.395 3.0424,15.701 C1.8674,14.269 1.1334,12.466 1.0254,10.5 L1.0254,10.5 Z M4.7694,5.107 C4.3284,6.417 4.0624,7.91 4.0154,9.5 L1.0254,9.5 C1.1334,7.534 1.8674,5.731 3.0424,4.299 C3.5664,4.605 4.1444,4.876 4.7694,5.107 L4.7694,5.107 Z M18.9744,9.5 L15.9844,9.5 C15.9374,7.91 15.6714,6.417 15.2304,5.107 C15.8554,4.876 16.4334,4.605 16.9584,4.299 C18.1324,5.731 18.8664,7.534 18.9744,9.5 L18.9744,9.5 Z M15.2304,14.893 C15.6714,13.583 15.9374,12.09 15.9844,10.5 L18.9744,10.5 C18.8664,12.466 18.1324,14.269 16.9584,15.701 C16.4334,15.395 15.8554,15.124 15.2304,14.893 L15.2304,14.893 Z M9.5004,15.027 L9.5004,18.953 C8.1364,18.696 6.9184,17.4 6.0934,15.531 C7.1504,15.238 8.2974,15.066 9.5004,15.027 L9.5004,15.027 Z M9.5004,10.5 L9.5004,14.018 C8.1554,14.058 6.8794,14.251 5.7264,14.58 C5.3164,13.365 5.0624,11.975 5.0144,10.5 L9.5004,10.5 Z M9.5004,5.982 L9.5004,9.5 L5.0144,9.5 C5.0624,8.025 5.3164,6.635 5.7264,5.42 C6.8794,5.749 8.1554,5.942 9.5004,5.982 L9.5004,5.982 Z M9.5004,1.047 L9.5004,4.973 C8.2974,4.934 7.1504,4.762 6.0934,4.469 C6.9184,2.6 8.1364,1.304 9.5004,1.047 L9.5004,1.047 Z M10.5004,4.973 L10.5004,1.047 C11.8634,1.304 13.0824,2.6 13.9064,4.469 C12.8494,4.762 11.7024,4.934 10.5004,4.973 L10.5004,4.973 Z M10.5004,9.5 L10.5004,5.982 C11.8444,5.942 13.1204,5.749 14.2734,5.42 C14.6834,6.635 14.9374,8.025 14.9854,9.5 L10.5004,9.5 Z M10.5004,14.018 L10.5004,10.5 L14.9854,10.5 C14.9374,11.975 14.6834,13.365 14.2734,14.58 C13.1204,14.251 11.8444,14.058 10.5004,14.018 L10.5004,14.018 Z M10.5004,15.027 C11.7024,15.066 12.8494,15.238 13.9064,15.531 C13.0824,17.4 11.8634,18.696 10.5004,18.953 L10.5004,15.027 Z M13.6944,1.802 C13.8824,1.887 14.0704,1.974 14.2524,2.071 C14.3274,2.112 14.3994,2.159 14.4734,2.202 C14.6484,2.302 14.8224,2.404 14.9894,2.516 C15.0744,2.573 15.1554,2.637 15.2394,2.696 C15.3864,2.803 15.5354,2.909 15.6754,3.023 C15.7824,3.11 15.8824,3.206 15.9854,3.297 C16.0784,3.381 16.1734,3.463 16.2634,3.55 C15.8334,3.788 15.3664,3.997 14.8724,4.18 C14.4384,3.172 13.8974,2.304 13.2734,1.625 C13.3374,1.65 13.4024,1.669 13.4654,1.696 C13.5434,1.729 13.6174,1.768 13.6944,1.802 L13.6944,1.802 Z M4.0154,3.296 C4.1184,3.205 4.2174,3.11 4.3244,3.023 C4.4644,2.909 4.6134,2.803 4.7604,2.696 C4.8444,2.637 4.9254,2.573 5.0104,2.516 C5.1774,2.404 5.3514,2.302 5.5264,2.202 C5.6004,2.159 5.6724,2.112 5.7484,2.071 C5.9294,1.974 6.1174,1.888 6.3044,1.803 C6.3814,1.768 6.4574,1.729 6.5344,1.696 C6.5974,1.669 6.6634,1.65 6.7264,1.625 C6.1024,2.304 5.5614,3.172 5.1284,4.18 C4.6334,3.997 4.1674,3.788 3.7364,3.55 C3.8264,3.463 3.9214,3.38 4.0154,3.296 L4.0154,3.296 Z M6.3024,18.197 C6.1164,18.112 5.9294,18.026 5.7494,17.929 C5.6724,17.888 5.5994,17.84 5.5244,17.797 C5.3504,17.697 5.1764,17.596 5.0094,17.484 C4.9244,17.427 4.8434,17.363 4.7594,17.302 C4.6124,17.196 4.4644,17.091 4.3254,16.977 C4.2164,16.889 4.1154,16.792 4.0104,16.699 C3.9194,16.616 3.8254,16.536 3.7364,16.45 C4.1674,16.212 4.6334,16.003 5.1284,15.82 C5.5614,16.828 6.1024,17.696 6.7264,18.375 C6.6634,18.35 6.5974,18.331 6.5344,18.304 C6.4564,18.271 6.3804,18.231 6.3024,18.197 L6.3024,18.197 Z M15.9904,16.698 C15.8854,16.792 15.7834,16.889 15.6744,16.977 C15.5354,17.091 15.3874,17.196 15.2404,17.302 C15.1564,17.363 15.0754,17.427 14.9904,17.484 C14.8234,17.596 14.6494,17.697 14.4754,17.797 C14.4004,17.84 14.3274,17.888 14.2514,17.929 C14.0704,18.026 13.8834,18.112 13.6974,18.197 C13.6194,18.231 13.5444,18.271 13.4654,18.304 C13.4024,18.331 13.3374,18.35 13.2734,18.375 C13.8974,17.696 14.4384,16.828 14.8724,15.82 C15.3664,16.003 15.8334,16.212 16.2634,16.45 C16.1754,16.535 16.0824,16.616 15.9904,16.698 L15.9904,16.698 Z M17.7994,16.25 C19.1734,14.538 20.0004,12.367 20.0004,10 C20.0004,7.633 19.1734,5.462 17.7994,3.75 L17.7984,3.75 C17.3424,3.181 16.8284,2.665 16.2594,2.208 C16.2444,2.195 16.2254,2.183 16.2094,2.17 C15.9564,1.969 15.6934,1.781 15.4214,1.604 C15.3504,1.559 15.2774,1.518 15.2064,1.474 C14.9824,1.337 14.7544,1.208 14.5204,1.088 C14.4214,1.038 14.3234,0.992 14.2234,0.945 C14.0054,0.844 13.7864,0.75 13.5604,0.665 C13.4464,0.621 13.3324,0.578 13.2144,0.538 C12.9944,0.463 12.7694,0.398 12.5424,0.339 C12.4204,0.306 12.2974,0.271 12.1734,0.244 C11.9324,0.19 11.6864,0.151 11.4384,0.115 C11.3264,0.099 11.2154,0.076 11.1014,0.063 C10.7394,0.024 10.3734,0 10.0004,0 C9.6274,0 9.2604,0.024 8.8984,0.063 C8.7844,0.076 8.6734,0.099 8.5614,0.115 C8.3134,0.151 8.0674,0.19 7.8264,0.244 C7.7024,0.271 7.5804,0.306 7.4584,0.339 C7.2304,0.398 7.0054,0.463 6.7854,0.538 C6.6684,0.578 6.5534,0.621 6.4394,0.665 C6.2134,0.75 5.9944,0.844 5.7764,0.945 C5.6764,0.992 5.5784,1.038 5.4794,1.088 C5.2454,1.208 5.0174,1.337 4.7944,1.474 C4.7224,1.518 4.6494,1.559 4.5794,1.604 C4.3064,1.781 4.0444,1.969 3.7914,2.17 C3.7744,2.183 3.7554,2.195 3.7404,2.208 C3.1714,2.665 2.6574,3.181 2.2014,3.75 C2.2014,3.75 2.2014,3.75 2.2004,3.75 C0.8264,5.462 0.0004,7.633 0.0004,10 C0.0004,12.367 0.8264,14.538 2.2004,16.25 L2.2014,16.25 C2.6564,16.818 3.1724,17.335 3.7404,17.792 C3.7554,17.805 3.7734,17.816 3.7894,17.829 C4.0434,18.03 4.3064,18.219 4.5794,18.396 C4.6494,18.441 4.7224,18.482 4.7944,18.526 C5.0174,18.663 5.2454,18.792 5.4794,18.912 C5.5774,18.961 5.6764,19.008 5.7764,19.055 C5.9944,19.156 6.2144,19.25 6.4394,19.336 C6.5534,19.379 6.6684,19.422 6.7854,19.462 C7.0054,19.537 7.2304,19.602 7.4584,19.662 C7.5814,19.694 7.7024,19.729 7.8264,19.756 C8.0684,19.81 8.3144,19.849 8.5614,19.885 C8.6734,19.901 8.7854,19.924 8.8984,19.937 C9.2604,19.976 9.6274,20 10.0004,20 C10.3734,20 10.7394,19.976 11.1014,19.937 C11.2144,19.924 11.3264,19.901 11.4384,19.885 C11.6854,19.849 11.9314,19.81 12.1734,19.756 C12.2974,19.729 12.4194,19.694 12.5424,19.662 C12.7694,19.602 12.9944,19.537 13.2144,19.462 C13.3324,19.422 13.4464,19.379 13.5604,19.336 C13.7854,19.25 14.0054,19.156 14.2234,19.055 C14.3234,19.008 14.4224,18.961 14.5204,18.912 C14.7544,18.792 14.9824,18.663 15.2064,18.526 C15.2774,18.482 15.3504,18.441 15.4214,18.396 C15.6934,18.219 15.9574,18.03 16.2114,17.829 C16.2264,17.816 16.2444,17.805 16.2594,17.792 C16.8274,17.335 17.3434,16.818 17.7984,16.25 L17.7994,16.25 Z" id="Fill-1" fill="#636466" mask="url(#mask-2)"></path>
            </g>
        </g>
    </g>
</svg>