<?xml version="1.0" encoding="UTF-8"?>
<svg width="20px" height="20px" viewBox="0 0 20 20" version="1.1" xmlns="http://www.w3.org/2000/svg" xmlns:xlink="http://www.w3.org/1999/xlink">
    <!-- Generator: Sketch 41.2 (35397) - http://www.bohemiancoding.com/sketch -->
    <title>icon-ko-hover</title>
    <desc>Created with Sketch.</desc>
    <defs></defs>
    <g id="Symbols" stroke="none" stroke-width="1" fill="none" fill-rule="evenodd">
        <g id="icon-ko-hover">
            <g id="Page-1">
                <path d="M10,0 C4.478,0 0,4.477 0,10 C0,15.523 4.478,20 10,20 C15.522,20 20,15.523 20,10 C20,4.477 15.522,0 10,0 M10,1 C14.963,1 19,5.037 19,10 C19,14.962 14.963,19 10,19 C5.037,19 1,14.962 1,10 C1,5.037 5.037,1 10,1" id="Fill-1" fill="#FC4A1A"></path>
                <path d="M16.3516,7.4302 C13.7096,6.2502 10.6566,7.3122 9.5466,9.7972 C8.6606,11.7832 6.1966,12.6202 4.0536,11.6632 C1.9456,10.7222 0.9326,8.3912 1.7446,6.4262 C1.2676,7.5222 0.9996,8.7302 0.9996,10.0002 C0.9996,10.0052 1.0006,10.0102 1.0006,10.0142 C1.5326,11.0962 2.4336,12.0272 3.6486,12.5702 C6.2906,13.7502 9.3436,12.6872 10.4536,10.2022 C11.3396,8.2172 13.8036,7.3802 15.9476,8.3372 C18.0546,9.2782 19.0676,11.6082 18.2556,13.5742 C18.7326,12.4772 18.9996,11.2702 18.9996,10.0002 C18.9996,9.9942 18.9986,9.9902 18.9986,9.9852 C18.4676,8.9042 17.5666,7.9722 16.3516,7.4302" id="Fill-3" fill="#1F75D8"></path>
            </g>
        </g>
    </g>
</svg>