<?xml version="1.0" encoding="UTF-8"?>
<svg width="20px" height="20px" viewBox="0 0 20 20" version="1.1" xmlns="http://www.w3.org/2000/svg" xmlns:xlink="http://www.w3.org/1999/xlink">
    <!-- Generator: Sketch 41.2 (35397) - http://www.bohemiancoding.com/sketch -->
    <title>icon-en</title>
    <desc>Created with Sketch.</desc>
    <defs>
        <polygon id="path-1" points="20 19.9996 20 0 0.0005 0 0.0005 19.9996"></polygon>
    </defs>
    <g id="Symbols" stroke="none" stroke-width="1" fill="none" fill-rule="evenodd">
        <g id="icon-en">
            <g id="Page-1">
                <mask id="mask-2" fill="white">
                    <use xlink:href="#path-1"></use>
                </mask>
                <g id="Clip-2"></g>
                <path d="M15.2305,14.8926 C15.6715,13.5826 15.9375,12.0906 15.9845,10.4996 L18.9745,10.4996 C18.8665,12.4666 18.1325,14.2686 16.9585,15.7006 C16.4335,15.3946 15.8555,15.1236 15.2305,14.8926 L15.2305,14.8926 Z M1.0255,10.4996 L4.0155,10.4996 C4.0625,12.0906 4.3285,13.5826 4.7695,14.8926 C4.1445,15.1236 3.5665,15.3946 3.0425,15.7006 C1.8675,14.2686 1.1335,12.4666 1.0255,10.4996 L1.0255,10.4996 Z M4.7695,5.1076 C4.3285,6.4176 4.0625,7.9096 4.0155,9.4996 L1.0255,9.4996 C1.1335,7.5336 1.8675,5.7316 3.0425,4.2996 C3.5665,4.6046 4.1445,4.8756 4.7695,5.1076 L4.7695,5.1076 Z M10.5005,9.4996 L10.5005,5.9826 C11.8445,5.9426 13.1205,5.7486 14.2735,5.4196 C14.6835,6.6356 14.9375,8.0256 14.9855,9.4996 L10.5005,9.4996 Z M10.5005,14.0176 L10.5005,10.4996 L14.9855,10.4996 C14.9375,11.9746 14.6835,13.3646 14.2735,14.5806 C13.1205,14.2506 11.8445,14.0576 10.5005,14.0176 L10.5005,14.0176 Z M10.5005,18.9526 L10.5005,15.0276 C11.7025,15.0656 12.8495,15.2386 13.9065,15.5316 C13.0825,17.4006 11.8635,18.6956 10.5005,18.9526 L10.5005,18.9526 Z M9.5005,15.0276 L9.5005,18.9526 C8.1365,18.6956 6.9175,17.4006 6.0935,15.5316 C7.1505,15.2386 8.2975,15.0656 9.5005,15.0276 L9.5005,15.0276 Z M9.5005,10.4996 L9.5005,14.0176 C8.1555,14.0576 6.8795,14.2506 5.7265,14.5806 C5.3165,13.3646 5.0625,11.9746 5.0145,10.4996 L9.5005,10.4996 Z M9.5005,5.9826 L9.5005,9.4996 L5.0145,9.4996 C5.0625,8.0256 5.3165,6.6356 5.7265,5.4196 C6.8795,5.7486 8.1555,5.9426 9.5005,5.9826 L9.5005,5.9826 Z M9.5005,1.0476 L9.5005,4.9726 C8.2975,4.9346 7.1505,4.7616 6.0935,4.4686 C6.9175,2.5996 8.1365,1.3046 9.5005,1.0476 L9.5005,1.0476 Z M13.9065,4.4686 C12.8495,4.7616 11.7025,4.9346 10.5005,4.9726 L10.5005,1.0476 C11.8635,1.3046 13.0825,2.5996 13.9065,4.4686 L13.9065,4.4686 Z M13.6945,1.8026 C13.8825,1.8876 14.0705,1.9736 14.2515,2.0706 C14.3275,2.1116 14.3995,2.1586 14.4735,2.2016 C14.6485,2.3026 14.8225,2.4036 14.9895,2.5156 C15.0745,2.5726 15.1555,2.6366 15.2395,2.6966 C15.3865,2.8026 15.5355,2.9086 15.6755,3.0236 C15.7825,3.1106 15.8825,3.2056 15.9855,3.2976 C16.0785,3.3806 16.1735,3.4626 16.2635,3.5506 C15.8335,3.7886 15.3665,3.9966 14.8725,4.1796 C14.4385,3.1726 13.8975,2.3046 13.2735,1.6246 C13.3365,1.6506 13.4025,1.6696 13.4655,1.6956 C13.5435,1.7286 13.6175,1.7676 13.6945,1.8026 L13.6945,1.8026 Z M4.0155,3.2966 C4.1185,3.2046 4.2175,3.1106 4.3245,3.0236 C4.4645,2.9086 4.6135,2.8026 4.7605,2.6966 C4.8445,2.6366 4.9255,2.5726 5.0105,2.5156 C5.1775,2.4036 5.3515,2.3026 5.5265,2.2016 C5.6005,2.1586 5.6725,2.1116 5.7485,2.0706 C5.9295,1.9736 6.1175,1.8876 6.3045,1.8026 C6.3815,1.7676 6.4575,1.7286 6.5345,1.6956 C6.5975,1.6696 6.6635,1.6496 6.7265,1.6246 C6.1025,2.3046 5.5615,3.1726 5.1275,4.1796 C4.6335,3.9966 4.1675,3.7886 3.7365,3.5506 C3.8265,3.4626 3.9215,3.3806 4.0155,3.2966 L4.0155,3.2966 Z M6.3025,18.1966 C6.1165,18.1116 5.9295,18.0266 5.7495,17.9296 C5.6725,17.8886 5.5995,17.8406 5.5245,17.7966 C5.3505,17.6966 5.1765,17.5956 5.0095,17.4846 C4.9245,17.4276 4.8435,17.3626 4.7595,17.3026 C4.6125,17.1966 4.4645,17.0916 4.3255,16.9766 C4.2165,16.8886 4.1155,16.7926 4.0105,16.6986 C3.9185,16.6166 3.8255,16.5356 3.7365,16.4496 C4.1675,16.2116 4.6335,16.0026 5.1275,15.8206 C5.5615,16.8276 6.1025,17.6956 6.7265,18.3746 C6.6635,18.3496 6.5975,18.3306 6.5345,18.3046 C6.4565,18.2716 6.3805,18.2316 6.3025,18.1966 L6.3025,18.1966 Z M15.9905,16.6986 C15.8855,16.7916 15.7835,16.8886 15.6745,16.9766 C15.5355,17.0916 15.3875,17.1966 15.2405,17.3026 C15.1565,17.3626 15.0755,17.4276 14.9905,17.4846 C14.8235,17.5956 14.6495,17.6966 14.4755,17.7966 C14.4005,17.8406 14.3275,17.8886 14.2515,17.9296 C14.0705,18.0266 13.8835,18.1116 13.6975,18.1966 C13.6195,18.2316 13.5435,18.2716 13.4655,18.3046 C13.4025,18.3306 13.3365,18.3496 13.2735,18.3746 C13.8975,17.6956 14.4385,16.8276 14.8725,15.8206 C15.3665,16.0026 15.8335,16.2116 16.2635,16.4496 C16.1755,16.5356 16.0825,16.6156 15.9905,16.6986 L15.9905,16.6986 Z M18.9745,9.4996 L15.9845,9.4996 C15.9375,7.9096 15.6715,6.4176 15.2305,5.1076 C15.8555,4.8756 16.4335,4.6046 16.9585,4.2996 C18.1325,5.7316 18.8665,7.5336 18.9745,9.4996 L18.9745,9.4996 Z M17.7995,3.7496 L17.7995,3.7496 L17.7985,3.7496 C17.3425,3.1816 16.8285,2.6646 16.2595,2.2076 C16.2445,2.1946 16.2255,2.1836 16.2095,2.1696 C15.9565,1.9696 15.6935,1.7806 15.4205,1.6046 C15.3505,1.5596 15.2775,1.5176 15.2065,1.4746 C14.9825,1.3376 14.7545,1.2076 14.5205,1.0886 C14.4215,1.0386 14.3235,0.9916 14.2235,0.9456 C14.0055,0.8436 13.7865,0.7506 13.5605,0.6646 C13.4465,0.6206 13.3325,0.5776 13.2145,0.5386 C12.9945,0.4626 12.7695,0.3986 12.5425,0.3386 C12.4195,0.3066 12.2975,0.2716 12.1735,0.2446 C11.9325,0.1906 11.6865,0.1506 11.4385,0.1156 C11.3265,0.0986 11.2155,0.0766 11.1015,0.0636 C10.7395,0.0236 10.3735,-0.0004 10.0005,-0.0004 C9.6265,-0.0004 9.2605,0.0236 8.8985,0.0636 C8.7845,0.0766 8.6735,0.0986 8.5615,0.1156 C8.3135,0.1506 8.0675,0.1906 7.8265,0.2446 C7.7025,0.2716 7.5805,0.3066 7.4585,0.3386 C7.2305,0.3986 7.0055,0.4626 6.7855,0.5386 C6.6675,0.5776 6.5535,0.6206 6.4395,0.6646 C6.2135,0.7506 5.9945,0.8436 5.7765,0.9456 C5.6765,0.9916 5.5785,1.0386 5.4795,1.0886 C5.2455,1.2076 5.0175,1.3376 4.7935,1.4746 C4.7225,1.5176 4.6495,1.5596 4.5795,1.6046 C4.3065,1.7806 4.0435,1.9696 3.7915,2.1696 C3.7745,2.1836 3.7555,2.1946 3.7405,2.2076 C3.1715,2.6646 2.6575,3.1816 2.2015,3.7496 C2.2015,3.7496 2.2015,3.7496 2.2005,3.7496 C0.8265,5.4626 0.0005,7.6336 0.0005,9.9996 C0.0005,12.3666 0.8265,14.5376 2.2005,16.2496 L2.2015,16.2496 C2.6565,16.8186 3.1725,17.3356 3.7405,17.7916 C3.7555,17.8056 3.7735,17.8156 3.7895,17.8286 C4.0425,18.0306 4.3065,18.2196 4.5795,18.3956 C4.6495,18.4406 4.7225,18.4816 4.7935,18.5256 C5.0175,18.6626 5.2455,18.7926 5.4795,18.9116 C5.5775,18.9616 5.6765,19.0076 5.7765,19.0546 C5.9945,19.1566 6.2145,19.2496 6.4395,19.3356 C6.5535,19.3796 6.6675,19.4226 6.7855,19.4616 C7.0055,19.5376 7.2305,19.6016 7.4585,19.6616 C7.5815,19.6936 7.7025,19.7286 7.8265,19.7556 C8.0685,19.8096 8.3145,19.8496 8.5615,19.8846 C8.6735,19.9016 8.7855,19.9236 8.8985,19.9366 C9.2605,19.9756 9.6265,19.9996 10.0005,19.9996 C10.3735,19.9996 10.7395,19.9756 11.1015,19.9366 C11.2145,19.9236 11.3265,19.9016 11.4385,19.8846 C11.6855,19.8496 11.9315,19.8096 12.1735,19.7556 C12.2975,19.7286 12.4185,19.6936 12.5425,19.6616 C12.7695,19.6016 12.9945,19.5376 13.2145,19.4616 C13.3325,19.4226 13.4465,19.3796 13.5605,19.3356 C13.7855,19.2496 14.0055,19.1566 14.2235,19.0546 C14.3235,19.0076 14.4225,18.9616 14.5205,18.9116 C14.7545,18.7926 14.9825,18.6626 15.2065,18.5256 C15.2775,18.4816 15.3505,18.4406 15.4205,18.3956 C15.6935,18.2196 15.9575,18.0306 16.2105,17.8286 C16.2265,17.8156 16.2445,17.8056 16.2595,17.7916 C16.8275,17.3356 17.3435,16.8186 17.7985,16.2496 L17.7995,16.2496 C19.1735,14.5376 20.0005,12.3666 20.0005,9.9996 C20.0005,7.6336 19.1735,5.4626 17.7995,3.7496 L17.7995,3.7496 Z" id="Fill-1" fill="#BBBBBB" mask="url(#mask-2)"></path>
            </g>
        </g>
    </g>
</svg>