<?xml version="1.0" encoding="UTF-8"?>
<svg width="20px" height="20px" viewBox="0 0 20 20" version="1.1" xmlns="http://www.w3.org/2000/svg" xmlns:xlink="http://www.w3.org/1999/xlink">
    <!-- Generator: Sketch 41.2 (35397) - http://www.bohemiancoding.com/sketch -->
    <title>icon-ko-active</title>
    <desc>Created with Sketch.</desc>
    <defs>
        <polygon id="path-1" points="20 10.00005 20 20 0 20 0 10.00005 0 0.0001 20 0.0001"></polygon>
    </defs>
    <g id="Symbols" stroke="none" stroke-width="1" fill="none" fill-rule="evenodd">
        <g id="icon-ko-active">
            <g id="Page-1">
                <mask id="mask-2" fill="white">
                    <use xlink:href="#path-1"></use>
                </mask>
                <g id="Clip-2"></g>
                <path d="M10,19.0001 C5.042,19.0001 1.009,14.9701 1.001,10.0151 C1.532,11.0961 2.434,12.0271 3.648,12.5701 C6.291,13.7501 9.344,12.6881 10.453,10.2031 C11.34,8.2171 13.804,7.3801 15.947,8.3371 C18.055,9.2781 19.067,11.6081 18.256,13.5741 C16.87,16.7631 13.692,19.0001 10,19.0001 M10,1.0001 C14.957,1.0001 18.99,5.0291 18.999,9.9851 C18.468,8.9041 17.566,7.9731 16.352,7.4301 C13.71,6.2501 10.656,7.3121 9.547,9.7971 C8.66,11.7831 6.196,12.6201 4.054,11.6631 C1.945,10.7221 0.933,8.3921 1.744,6.4261 C3.13,3.2371 6.308,1.0001 10,1.0001 M19.143,14.0401 C19.69,12.8041 20,11.4391 20,10.0001 C20,4.4771 15.522,0.0001 10,0.0001 C5.93,0.0001 2.435,2.4351 0.874,5.9251 L0.869,5.9221 C0.863,5.9351 0.862,5.9471 0.857,5.9601 C0.31,7.1961 0,8.5611 0,10.0001 C0,15.5231 4.478,20.0001 10,20.0001 C14.07,20.0001 17.565,17.5651 19.126,14.0751 L19.131,14.0781 C19.137,14.0651 19.138,14.0521 19.143,14.0401" id="Fill-1" fill="#636466" mask="url(#mask-2)"></path>
            </g>
        </g>
    </g>
</svg>